<?xml version="1.0"?>
<svg xmlns="http://www.w3.org/2000/svg" xmlns:xlink="http://www.w3.org/1999/xlink" viewBox="0 0 64 64" width="512" height="512"><defs><linearGradient id="New_Gradient_Swatch_1" x1="16" y1="-0.634" x2="16" y2="65.921" gradientUnits="userSpaceOnUse"><stop offset="0" stop-color="#fff33b"/><stop offset="0.014" stop-color="#fee72e"/><stop offset="0.042" stop-color="#fed51b"/><stop offset="0.07" stop-color="#fdca10"/><stop offset="0.1" stop-color="#fdc70c"/><stop offset="0.4" stop-color="#f3903f"/><stop offset="0.8" stop-color="#ed683c"/><stop offset="1" stop-color="#e93e3a"/></linearGradient><linearGradient id="New_Gradient_Swatch_1-2" x1="48" y1="-0.634" x2="48" y2="65.921" xlink:href="#New_Gradient_Swatch_1"/></defs><g id="stay_at_home-homes-houses-man-work_from_home" data-name="stay at home-homes-houses-man-work from home"><path d="M28.32,20.73A.977.977,0,0,0,29,21a1.1,1.1,0,0,0,.4-.08A1.011,1.011,0,0,0,30,20V15a.99.99,0,0,0-.32-.73l-13-12a.991.991,0,0,0-1.36,0l-13,12A.99.99,0,0,0,2,15v5a1,1,0,0,0,1.68.73L5,19.52v6.27L2.32,28.27A.99.99,0,0,0,2,29v5a1,1,0,0,0,1.68.73L5,33.52v6.27L2.32,42.27A.99.99,0,0,0,2,43v5a1,1,0,0,0,1.68.73L5,47.52V61a1,1,0,0,0,1,1H26a1,1,0,0,0,1-1V47.52l1.32,1.21A.977.977,0,0,0,29,49a1.1,1.1,0,0,0,.4-.08A1.011,1.011,0,0,0,30,48V43a.99.99,0,0,0-.32-.73L27,39.79V33.52l1.32,1.21A.977.977,0,0,0,29,35a1.1,1.1,0,0,0,.4-.08A1.011,1.011,0,0,0,30,34V29a.99.99,0,0,0-.32-.73L27,25.79V19.52ZM18,60H14V57a1,1,0,0,1,1-1h2a1,1,0,0,1,1,1Zm-3-7V52h2v1a1,1,0,0,1-2,0Zm0-3V48h4v1a1,1,0,0,1-1,1ZM25,60H20V57a2.983,2.983,0,0,0-1.4-2.53A2.942,2.942,0,0,0,19,53V51.82A3.01,3.01,0,0,0,21,49V47a1,1,0,0,0-1-1H14a1,1,0,0,0-1,1v6a2.942,2.942,0,0,0,.4,1.47A2.983,2.983,0,0,0,12,57v3H7V45.67l9-8.31,9,8.31Zm3-16.56v2.28L16.68,35.27a.991.991,0,0,0-1.36,0L4,45.72V43.44L16,32.36ZM7,37.95V31.67l9-8.31,9,8.31v6.28l-8.32-7.68a.991.991,0,0,0-1.36,0Zm21-8.51v2.28L16.68,21.27a.991.991,0,0,0-1.36,0L4,31.72V29.44L16,18.36ZM7,23.95V17.67l9-8.31,9,8.31v6.28l-8.32-7.68a.991.991,0,0,0-1.36,0ZM16.68,7.27a.991.991,0,0,0-1.36,0L4,17.72V15.44L16,4.36,28,15.44v2.28Z" style="fill:url(#New_Gradient_Swatch_1)"/><path d="M60.32,20.73A.977.977,0,0,0,61,21a1.1,1.1,0,0,0,.4-.08A1.011,1.011,0,0,0,62,20V15a.99.99,0,0,0-.32-.73l-13-12a.991.991,0,0,0-1.36,0l-13,12A.99.99,0,0,0,34,15v5a1,1,0,0,0,1.68.73L37,19.52v6.27l-2.68,2.48A.99.99,0,0,0,34,29v5a1,1,0,0,0,1.68.73L37,33.52v6.27l-2.68,2.48A.99.99,0,0,0,34,43v5a1,1,0,0,0,1.68.73L37,47.52V61a1,1,0,0,0,1,1H58a1,1,0,0,0,1-1V47.52l1.32,1.21A.977.977,0,0,0,61,49a1.1,1.1,0,0,0,.4-.08A1.011,1.011,0,0,0,62,48V43a.99.99,0,0,0-.32-.73L59,39.79V33.52l1.32,1.21A.977.977,0,0,0,61,35a1.1,1.1,0,0,0,.4-.08A1.011,1.011,0,0,0,62,34V29a.99.99,0,0,0-.32-.73L59,25.79V19.52ZM50,60H46V57a1,1,0,0,1,1-1h2a1,1,0,0,1,1,1Zm-3-7V52h2v1a1,1,0,0,1-2,0Zm0-3V48h4v1a1,1,0,0,1-1,1ZM57,60H52V57a2.983,2.983,0,0,0-1.4-2.53A2.942,2.942,0,0,0,51,53V51.82A3.01,3.01,0,0,0,53,49V47a1,1,0,0,0-1-1H46a1,1,0,0,0-1,1v6a2.942,2.942,0,0,0,.4,1.47A2.983,2.983,0,0,0,44,57v3H39V45.67l9-8.31,9,8.31Zm3-16.56v2.28L48.68,35.27a.991.991,0,0,0-1.36,0L36,45.72V43.44L48,32.36ZM39,37.95V31.67l9-8.31,9,8.31v6.28l-8.32-7.68a.991.991,0,0,0-1.36,0Zm21-8.51v2.28L48.68,21.27a.991.991,0,0,0-1.36,0L36,31.72V29.44L48,18.36ZM39,23.95V17.67l9-8.31,9,8.31v6.28l-8.32-7.68a.991.991,0,0,0-1.36,0ZM48.68,7.27a.991.991,0,0,0-1.36,0L36,17.72V15.44L48,4.36,60,15.44v2.28Z" style="fill:url(#New_Gradient_Swatch_1-2)"/></g></svg>
